<svg xmlns="http://www.w3.org/2000/svg" xmlns:xlink="http://www.w3.org/1999/xlink" width="22" height="18"
     viewBox="0 0 22 18">
  <defs>
    <path id="2uara"
          d="M875 339.19c-1.66 0-3 1.34-3 3s1.34 3 3 3 3-1.34 3-3-1.34-3-3-3zm0 8c-2.76 0-5-2.24-5-5s2.24-5 5-5 5 2.24 5 5-2.24 5-5 5zm0-12.5c-5 0-9.27 3.11-11 7.5 1.73 4.39 6 7.5 11 7.5s9.27-3.11 11-7.5c-1.73-4.39-6-7.5-11-7.5z"/>
    <path id="2uarb" d="M863 342.19a1 1 0 0 0 1 1h22a1 1 0 0 0 0-2h-22a1 1 0 0 0-1 1z"/>
  </defs>
  <g>
    <g transform="translate(-864 -334)">
      <use fill="#eaeaea" xlink:href="#2uara"/>
    </g>
    <g transform="rotate(45 846.174 -867.44)">
      <use fill="#eaeaea" xlink:href="#2uarb"/>
    </g>
  </g>
</svg>
