<svg xmlns="http://www.w3.org/2000/svg" viewBox="0 0 196 32">
  <defs>
    <clipPath id="a">
      <path clip-rule="evenodd" d="M-145.899 -51.815H1288.1970000000001V10086.447H-145.899z"/>
    </clipPath>
  </defs>
  <g clip-path="url(#a)">
    <path fill="#FFF" transform="matrix(0.9959 0 0 0.9959 11.9302 0.9672)"
          d="M3.08216 31.1529L3.136 31.191L4.26603 30.316C4.60052 30.057 5.16131 29.5946 5.87407 28.9592C7.05567 27.9059 8.23699 26.7421 9.34447 25.4954C11.9616 22.5492 13.7751 19.6013 14.408 16.699C14.565 15.9789 14.6464 15.2673 14.6464 14.5662L14.6464 0L3.08216 0L3.08216 3.84L10.7921 3.84L10.7921 14.5662C10.7921 14.9845 10.7418 15.4239 10.6415 15.8838C10.1768 18.0149 8.67748 20.4521 6.45817 22.9505C5.45784 24.0766 4.38077 25.1377 3.30399 26.0976C3.22891 26.1645 3.15494 26.2299 3.08216 26.2939L3.08216 31.1529ZM109.485 9.23776C109.485 10.5997 109.249 11.844 108.777 12.9709C108.306 14.0977 107.651 15.0624 106.812 15.865C105.974 16.6675 104.978 17.2877 103.822 17.7254C102.667 18.1632 101.414 18.3821 100.063 18.3821C98.7122 18.3821 97.4632 18.1632 96.3159 17.7254C95.1686 17.2877 94.1759 16.6675 93.3378 15.865C92.4997 15.0624 91.8447 14.0977 91.3727 12.9709C90.9008 11.844 90.6648 10.5997 90.6648 9.23776C90.6648 7.85962 90.9008 6.61526 91.3727 5.50464C91.8447 4.39402 92.4997 3.4496 93.3378 2.67136C94.1759 1.89312 95.1686 1.29323 96.3159 0.87168C97.4632 0.450131 98.7122 0.23936 100.063 0.23936C101.414 0.23936 102.667 0.450131 103.822 0.87168C104.978 1.29323 105.974 1.89312 106.812 2.67136C107.651 3.4496 108.306 4.39402 108.777 5.50464C109.249 6.61526 109.485 7.85962 109.485 9.23776ZM31.0143 12.0346C31.0143 12.7155 30.937 13.4289 30.7824 14.1747C30.6278 14.9205 30.343 15.6055 29.928 16.2298C29.5131 16.854 28.9353 17.3687 28.1949 17.7741C27.4544 18.1794 26.4984 18.3821 25.3266 18.3821C23.862 18.3821 22.6415 18.0051 21.665 17.2512C20.6886 16.4973 20.0377 15.5285 19.7122 14.345L23.3982 13.1046C23.5121 13.5586 23.7196 13.9234 24.0207 14.199C24.3217 14.4747 24.692 14.6125 25.1314 14.6125C25.8149 14.6125 26.2664 14.3774 26.4861 13.9072C26.7058 13.437 26.8157 12.8209 26.8157 12.0589L26.8157 0.70144L31.0143 0.70144L31.0143 12.0346ZM49.3839 11.4266C49.3839 12.4642 49.209 13.4086 48.8591 14.2598C48.5092 15.111 48.0088 15.8406 47.3578 16.4486C46.7069 17.0566 45.9217 17.5309 45.0022 17.8714C44.0827 18.2118 43.0616 18.3821 41.9387 18.3821C40.7995 18.3821 39.7743 18.2118 38.863 17.8714C37.9516 17.5309 37.1786 17.0566 36.5439 16.4486C35.9093 15.8406 35.4211 15.111 35.0793 14.2598C34.7376 13.4086 34.5667 12.4642 34.5667 11.4266L34.5667 0.70144L38.7165 0.70144L38.7165 11.0861C38.7165 11.5563 38.7775 12.0021 38.8996 12.4237C39.0216 12.8452 39.2088 13.2222 39.461 13.5546C39.7133 13.8869 40.0469 14.1504 40.4618 14.345C40.8768 14.5395 41.3772 14.6368 41.9631 14.6368C42.549 14.6368 43.0494 14.5395 43.4643 14.345C43.8793 14.1504 44.217 13.8869 44.4774 13.5546C44.7378 13.2222 44.9249 12.8452 45.0388 12.4237C45.1527 12.0021 45.2097 11.5563 45.2097 11.0861L45.2097 0.70144L49.3839 0.70144L49.3839 11.4266ZM58.5263 11.0861L62.2612 17.92L67.1433 17.92L62.6273 10.551C63.7502 10.2106 64.629 9.6431 65.2637 8.84864C65.8983 8.05418 66.2157 7.07329 66.2157 5.90592C66.2157 4.9169 66.0285 4.09003 65.6542 3.42528C65.2799 2.76053 64.7795 2.2255 64.153 1.82016C63.5264 1.41482 62.8185 1.12704 62.0293 0.9568C61.24 0.786559 60.4304 0.70144 59.6004 0.70144L53.0095 0.70144L53.0095 17.92L57.1105 17.92L57.1105 11.0861L58.5263 11.0861ZM77.6039 17.92L77.6039 10.624L84.2435 0.70144L79.3614 0.70144L75.6754 7.07328L71.9894 0.70144L66.9364 0.70144L73.4296 10.624L73.4296 17.92L77.6039 17.92ZM123.485 17.92L116.528 6.65984L116.455 6.65984L116.553 17.92L112.501 17.92L112.501 0.70144L117.261 0.70144L124.193 11.9373L124.267 11.9373L124.169 0.70144L128.221 0.70144L128.221 17.92L123.485 17.92ZM132.042 0.70144L132.042 17.92L142.929 17.92L142.929 14.2963L136.241 14.2963L136.241 0.70144L132.042 0.70144ZM145.139 17.92L145.139 0.70144L149.338 0.70144L149.338 17.92L145.139 17.92ZM157.186 6.65984L164.143 17.92L168.879 17.92L168.879 0.70144L164.827 0.70144L164.924 11.9373L164.851 11.9373L157.919 0.70144L153.159 0.70144L153.159 17.92L157.211 17.92L157.113 6.65984L157.186 6.65984ZM172.7 17.92L172.7 0.70144L184.319 0.70144L184.319 4.22784L176.728 4.22784L176.728 7.4624L183.904 7.4624L183.904 10.7942L176.728 10.7942L176.728 14.3693L184.759 14.3693L184.759 17.92L172.7 17.92ZM104.652 7.14624C104.896 7.79478 105.018 8.49194 105.018 9.23776C105.018 10.016 104.896 10.7334 104.652 11.3901C104.408 12.0467 104.066 12.6101 103.627 13.0803C103.187 13.5505 102.667 13.9194 102.065 14.1869C101.462 14.4544 100.795 14.5882 100.063 14.5882C99.3306 14.5882 98.6634 14.4544 98.0612 14.1869C97.4591 13.9194 96.9424 13.5505 96.5111 13.0803C96.0799 12.6101 95.7422 12.0467 95.4981 11.3901C95.254 10.7334 95.132 10.016 95.132 9.23776C95.132 8.49194 95.2499 7.79478 95.4859 7.14624C95.7219 6.4977 96.0595 5.9424 96.4989 5.48032C96.9383 5.01824 97.4591 4.65344 98.0612 4.38592C98.6634 4.1184 99.3306 3.98464 100.063 3.98464C100.795 3.98464 101.466 4.1184 102.077 4.38592C102.687 4.65344 103.208 5.01824 103.639 5.48032C104.07 5.9424 104.408 6.4977 104.652 7.14624ZM62.0903 5.97888C62.0903 5.57354 62.0048 5.24523 61.834 4.99392C61.6631 4.74261 61.4434 4.54805 61.1749 4.41024C60.9064 4.27243 60.6053 4.1792 60.2717 4.13056C59.9381 4.08192 59.6167 4.0576 59.3075 4.0576L57.0861 4.0576L57.0861 8.0704L59.0634 8.0704C59.4051 8.0704 59.755 8.04203 60.113 7.98528C60.471 7.92853 60.7965 7.8272 61.0894 7.68128C61.3824 7.53536 61.6224 7.32459 61.8096 7.04896C61.9967 6.77333 62.0903 6.41664 62.0903 5.97888ZM3.18554 11.8663L0.00590044 15.0459L3.17374 18.2137L6.35338 15.0341L3.18554 11.8663ZM85.4695 12.7949L82.7441 15.5203L85.4594 18.2356L88.1848 15.5102L85.4695 12.7949Z"
          fill-rule="evenodd"/>
  </g>
</svg>
