<svg xmlns="http://www.w3.org/2000/svg" xmlns:xlink="http://www.w3.org/1999/xlink" width="194" height="32" viewBox="0 0 194 32">
    <defs>
        <path id="a" d="M331.18 70.92V53.7h11.62v3.53h-7.6v3.23h7.18v3.33h-7.17v3.58h8.03v3.55zm-87.24.32l-2.71-2.72 2.72-2.72 2.71 2.72zM173.13 53v14.57a10 10 0 0 1-.24 2.13c-.63 2.9-2.45 5.85-5.07 8.8a42.37 42.37 0 0 1-5.07 4.82l-1.13.87-.06-.04V79.3a39.04 39.04 0 0 0 3.38-3.35c2.22-2.5 3.72-4.94 4.18-7.07.1-.46.15-.9.15-1.31V56.84h-7.71V53zm-11.48 18.21l-3.16-3.16 3.18-3.18 3.16 3.16zm160.97-.29l-6.95-11.26h-.08l.1 11.26h-4.05V53.7h4.76l6.93 11.24h.07l-.1-11.24h4.06v17.22zm-19 0V53.7h4.2v17.22zm-13.1 0V53.7h4.2v13.6h6.69v3.62zm-8.55 0L275 59.66h-.07l.1 11.26h-4.06V53.7h4.76l6.93 11.24h.08l-.1-11.24h4.05v17.22zm-18.47-8.68a5.9 5.9 0 0 0-.37-2.1 4.68 4.68 0 0 0-2.58-2.76 4.96 4.96 0 0 0-2-.4 4.87 4.87 0 0 0-3.57 1.5 4.74 4.74 0 0 0-1.01 1.67 6.08 6.08 0 0 0-.36 2.1c0 .77.12 1.49.37 2.15a4.63 4.63 0 0 0 4.56 3.2 4.87 4.87 0 0 0 3.57-1.51 5 5 0 0 0 1.02-1.7c.25-.65.37-1.37.37-2.15zm4.48 0c0 1.36-.24 2.6-.71 3.73a8.5 8.5 0 0 1-4.96 4.76c-1.16.43-2.41.65-3.76.65-1.35 0-2.6-.22-3.75-.65a8.5 8.5 0 0 1-4.95-4.75 9.57 9.57 0 0 1-.7-3.74c0-1.38.23-2.62.7-3.74a8.17 8.17 0 0 1 4.95-4.63 10.8 10.8 0 0 1 3.75-.63c1.35 0 2.6.21 3.76.63a8.17 8.17 0 0 1 4.96 4.63c.47 1.12.7 2.36.7 3.74zm-31.9 1.38v7.3h-4.17v-7.3l-6.5-9.92h5.06l3.68 6.37 3.68-6.37h4.88zm-15.51-4.64c0-.4-.09-.73-.26-.99a1.76 1.76 0 0 0-.66-.58 2.87 2.87 0 0 0-.9-.28 6.69 6.69 0 0 0-.96-.07h-2.22v4.01h1.97c.35 0 .7-.03 1.05-.08.36-.06.69-.16.98-.3.3-.15.53-.37.72-.64.19-.28.28-.63.28-1.07zm.17 11.94l-3.73-6.83h-1.42v6.83h-4.1V53.7h6.59c.83 0 1.64.09 2.43.26.79.17 1.5.45 2.12.86a4.52 4.52 0 0 1 2.07 4.09c0 1.16-.32 2.14-.96 2.94a5.2 5.2 0 0 1-2.63 1.7l4.51 7.37zm-12.89-6.5c0 1.04-.17 1.99-.52 2.84a6.16 6.16 0 0 1-1.5 2.19 6.92 6.92 0 0 1-2.35 1.42c-.92.34-1.94.51-3.07.51a8.73 8.73 0 0 1-3.07-.5 6.18 6.18 0 0 1-3.78-3.61 7.55 7.55 0 0 1-.51-2.84V53.7h4.14v10.4c0 .47.06.91.19 1.33.12.43.3.8.56 1.13.25.34.58.6 1 .8.41.19.91.29 1.5.29.58 0 1.08-.1 1.5-.3.41-.19.75-.45 1.01-.79.26-.33.45-.7.56-1.13.12-.42.17-.86.17-1.33V53.7h4.17zm-18.36.61c0 .69-.07 1.4-.23 2.14a5.8 5.8 0 0 1-.85 2.06 4.8 4.8 0 0 1-1.74 1.54c-.74.4-1.7.61-2.86.61a5.81 5.81 0 0 1-3.66-1.13 5.39 5.39 0 0 1-1.96-2.9l3.69-1.25c.11.46.32.82.62 1.1.3.27.67.41 1.11.41.68 0 1.14-.23 1.36-.7a4.4 4.4 0 0 0 .33-1.85V53.7h4.2z"/>
        <path id="b" d="M150 53v14.57c0 .7.08 1.4.24 2.13.63 2.9 2.44 5.85 5.06 8.8a42.37 42.37 0 0 0 5.08 4.82l1.13.87.04-.03v-4.87a39.25 39.25 0 0 1-3.37-3.34c-2.22-2.5-3.72-4.94-4.19-7.07-.1-.46-.15-.9-.15-1.31V56.84h7.71V53z"/>
    </defs>
    <use fill="#fff" xlink:href="#a" transform="translate(-150 -53)"/>
    <use fill="#fff" xlink:href="#b" opacity=".2" transform="translate(-150 -53)"/>
</svg>
