<?xml version="1.0" encoding="UTF-8"?><!DOCTYPE svg PUBLIC "-//W3C//DTD SVG 1.1//EN" "http://www.w3.org/Graphics/SVG/1.1/DTD/svg11.dtd"><svg xmlns="http://www.w3.org/2000/svg"><defs>
        <clipPath id="a">
            <path clip-rule="evenodd" d="M-145.899-51.815h1434.096v10138.262H-145.899z"/>
        </clipPath>
    
        <clipPath id="a">
            <path clip-rule="evenodd" d="M-807-53h960v8847h-960z"/>
        </clipPath>
    </defs><symbol id="icon-logo" viewBox="0 0 196 32">
    
    <g clip-path="url(#a)">
        <path d="M15 31.992l.053.038 1.126-.871a42.201 42.201 0 0 0 5.058-4.8c2.606-2.935 4.412-5.87 5.042-8.761a9.96 9.96 0 0 0 .238-2.124V.967H15v3.824h7.678v10.683c0 .416-.05.854-.15 1.312-.463 2.122-1.956 4.55-4.166 7.038A38.423 38.423 0 0 1 15 27.154v4.838zm105.966-21.825c0 1.356-.235 2.596-.705 3.718a8.438 8.438 0 0 1-1.957 2.882 8.704 8.704 0 0 1-2.977 1.853c-1.15.436-2.399.654-3.744.654-1.345 0-2.59-.218-3.732-.654a8.736 8.736 0 0 1-2.966-1.853 8.465 8.465 0 0 1-1.957-2.882c-.47-1.122-.705-2.362-.705-3.718 0-1.372.235-2.612.705-3.718a8.14 8.14 0 0 1 1.957-2.821c.835-.775 1.824-1.373 2.966-1.793 1.143-.42 2.387-.63 3.732-.63 1.345 0 2.593.21 3.744.63 1.15.42 2.143 1.018 2.977 1.793a8.115 8.115 0 0 1 1.957 2.821c.47 1.106.705 2.346.705 3.718zm-78.149 2.785c0 .679-.077 1.389-.23 2.132a5.781 5.781 0 0 1-.852 2.046c-.413.622-.988 1.135-1.725 1.538-.738.404-1.69.606-2.857.606-1.459 0-2.674-.376-3.647-1.126a5.364 5.364 0 0 1-1.944-2.895l3.67-1.235c.114.452.32.816.62 1.09.3.275.669.412 1.107.412.68 0 1.13-.234 1.349-.703.219-.468.328-1.081.328-1.84V1.666h4.181v11.286zm18.295-.605c0 1.033-.175 1.974-.523 2.822a6.132 6.132 0 0 1-1.495 2.18c-.648.605-1.43 1.077-2.346 1.416-.916.34-1.933.509-3.051.509-1.135 0-2.156-.17-3.063-.509-.908-.339-1.678-.811-2.31-1.417a6.152 6.152 0 0 1-1.458-2.18c-.34-.847-.51-1.788-.51-2.821V1.666h4.132v10.342c0 .468.06.912.182 1.332.122.42.308.795.56 1.126.25.331.583.594.996.787.413.194.912.291 1.495.291.584 0 1.082-.097 1.495-.29.414-.194.75-.457 1.01-.788a3.13 3.13 0 0 0 .558-1.126c.114-.42.17-.864.17-1.332V1.666h4.158v10.681zm9.105-.34l3.72 6.807h4.861l-4.497-7.34c1.118-.338 1.993-.903 2.625-1.694.632-.792.948-1.769.948-2.931 0-.985-.186-1.809-.559-2.47a4.504 4.504 0 0 0-1.495-1.6 6.302 6.302 0 0 0-2.115-.859 11.44 11.44 0 0 0-2.419-.254h-6.564v17.148h4.085v-6.806h1.41zm18.999 6.807v-7.266l6.612-9.882h-4.862l-3.67 6.345-3.672-6.345h-5.032l6.467 9.882v7.266h4.157zm45.693 0L127.98 7.6h-.072l.097 11.214h-4.035V1.666h4.74l6.904 11.19h.074l-.098-11.19h4.035v17.148h-4.716zm8.522-17.148v17.148h10.842v-3.61h-6.66V1.667h-4.182zm13.043 17.148V1.666h4.182v17.148h-4.182zM168.472 7.6l6.928 11.214h4.717V1.666h-4.036l.097 11.19h-.073l-6.903-11.19h-4.74v17.148h4.035L168.399 7.6h.073zm15.45 11.214V1.666h11.571v3.512h-7.56v3.221h7.147v3.318h-7.146v3.56h7.998v3.537h-12.01zm-67.769-10.73c.243.646.365 1.34.365 2.083 0 .775-.122 1.49-.365 2.144a4.972 4.972 0 0 1-1.02 1.683 4.744 4.744 0 0 1-1.556 1.102c-.6.266-1.265.4-1.994.4-.73 0-1.394-.134-1.994-.4a4.607 4.607 0 0 1-1.543-1.102 5.074 5.074 0 0 1-1.01-1.683 6.106 6.106 0 0 1-.364-2.144c0-.743.118-1.437.353-2.083a4.711 4.711 0 0 1 1.008-1.659c.438-.46.957-.823 1.556-1.09.6-.266 1.265-.4 1.994-.4.729 0 1.397.134 2.006.4.607.267 1.126.63 1.555 1.09.43.46.766 1.013 1.01 1.66zM73.766 6.922c0-.404-.085-.731-.255-.981a1.747 1.747 0 0 0-.657-.582 2.859 2.859 0 0 0-.9-.278 6.658 6.658 0 0 0-.96-.073h-2.212v3.997h1.97c.34 0 .688-.029 1.045-.085a3.34 3.34 0 0 0 .972-.303c.292-.145.53-.355.717-.63.187-.274.28-.63.28-1.065zm-58.663 5.863l-3.167 3.166 3.155 3.155 3.167-3.166-3.155-3.155zm81.946.925l-2.714 2.714 2.704 2.704 2.714-2.714-2.704-2.704z" fill-rule="evenodd"/>
    </g>
</symbol><symbol id="icon-toggle-open" viewBox="0 0 33 24">
    
    <g clip-path="url(#a)">
        <path d="M0 0h33v2H0V0zm0 11h33v2H0v-2zm33 11H0v2h33v-2z" fill-rule="evenodd"/>
    </g>
</symbol></svg>