<svg xmlns="http://www.w3.org/2000/svg" xmlns:xlink="http://www.w3.org/1999/xlink" width="21" height="19" viewBox="0 0 21 19">
    <defs>
        <path id="a" d="M682.59 721.872a4.745 4.745 0 0 1-6.718 0l-9.9-9.9a3.248 3.248 0 0 1 0-4.595 3.248 3.248 0 0 1 4.597 0l9.9 9.899a1.752 1.752 0 0 1 0 2.475 1.752 1.752 0 0 1-2.476 0l-8.838-8.839a.25.25 0 1 1 .353-.353l8.839 8.838a1.242 1.242 0 0 0 1.768 0 1.242 1.242 0 0 0 0-1.767l-9.9-9.9a2.739 2.739 0 0 0-3.889 0 2.739 2.739 0 0 0 0 3.89l9.9 9.899a4.235 4.235 0 0 0 6.01 0 4.235 4.235 0 0 0 0-6.01l-8.839-8.84a.25.25 0 1 1 .354-.353l8.839 8.839a4.745 4.745 0 0 1 0 6.717z"/>
    </defs>
    <g transform="translate(-664 -705)">
        <use fill="#003580" xlink:href="#a"/>
        <use fill="#fff" fill-opacity="0" stroke="#03357B" stroke-miterlimit="50" stroke-width=".5" xlink:href="#a"/>
    </g>
</svg>
