<?xml version="1.0" encoding="UTF-8"?><!DOCTYPE svg PUBLIC "-//W3C//DTD SVG 1.1//EN" "http://www.w3.org/Graphics/SVG/1.1/DTD/svg11.dtd"><svg xmlns="http://www.w3.org/2000/svg" xmlns:xlink="http://www.w3.org/1999/xlink"><defs>
        <path id="a" d="M875 339.19c-1.66 0-3 1.34-3 3s1.34 3 3 3 3-1.34 3-3-1.34-3-3-3zm0 8c-2.76 0-5-2.24-5-5s2.24-5 5-5 5 2.24 5 5-2.24 5-5 5zm0-12.5c-5 0-9.27 3.11-11 7.5 1.73 4.39 6 7.5 11 7.5s9.27-3.11 11-7.5c-1.73-4.39-6-7.5-11-7.5z"/>
        <path id="b" d="M863 342.19a1 1 0 0 0 1 1h22a1 1 0 0 0 0-2h-22a1 1 0 0 0-1 1z"/>
    
        <path id="a" d="M1028.5 940l-1.77 5.73H1021l4.634 3.54-1.77 5.73 4.636-3.54 4.636 3.54-1.77-5.73 4.634-3.54h-5.73z"/>
    </defs><symbol id="icon-eye" viewBox="0 0 22 18">
    
    <use xlink:href="#a" transform="translate(-864 -334)"/>
    <use xlink:href="#b" transform="rotate(45 846.174 -867.44)"/>
</symbol><symbol id="icon-star" viewBox="0 0 15 16">
    
    <g transform="translate(-1021 -940)">
        <use xlink:href="#a"/>
        <use fill-opacity="0" stroke-miterlimit="50" stroke-width=".75" xlink:href="#a"/>
    </g>
</symbol></svg>